G04 DipTrace 3.0.0.1*
G04 BottomMask.gbr*
%MOIN*%
G04 #@! TF.FileFunction,Soldermask,Bot*
G04 #@! TF.Part,Single*
%ADD34C,0.125984*%
%ADD39O,0.070866X0.185039*%
%ADD45C,0.03937*%
%ADD50C,0.07874*%
%FSLAX26Y26*%
G04*
G70*
G90*
G75*
G01*
G04 BotMask*
%LPD*%
D50*
X737451Y574950D3*
D3*
D34*
X1852244Y512638D3*
X511811Y511811D3*
X1850394Y2637795D3*
X511811D3*
D50*
X937520Y576181D3*
D3*
X1037520D3*
D3*
X1137520D3*
D3*
X1337559D3*
D3*
X1437559D3*
D3*
X1537559D3*
D3*
D45*
X1850394Y629921D3*
Y2519685D3*
Y866142D3*
X511811Y2519685D3*
X1850394Y1102362D3*
X511811Y2283465D3*
X1850394Y1338583D3*
X511811Y2047244D3*
Y1811024D3*
Y1574803D3*
Y1338583D3*
Y1102362D3*
X1850394Y1574803D3*
Y1811024D3*
Y2047244D3*
X511811Y866142D3*
Y629921D3*
X1025017Y2443916D3*
X881244Y1318807D3*
X1850394Y2283465D3*
X881253Y1218812D3*
Y1118807D3*
X968761Y2443916D3*
X881253Y1018801D3*
X881245Y918819D3*
X912505Y2718945D3*
Y2656438D3*
X1732283Y2637795D3*
X881253Y818795D3*
X912505Y2587681D3*
Y2518924D3*
X893745Y1418812D3*
X781253Y1518819D3*
Y1418819D3*
X818753Y1318819D3*
X743738Y1731341D3*
X912505Y2450167D3*
X1456312Y2718945D3*
Y2656438D3*
Y2587681D3*
X748031Y2637795D3*
X629921D3*
X866142D3*
X743738Y1800098D3*
X512638Y744961D3*
X893753Y1518819D3*
X1850394Y2400748D3*
X1456312Y2518924D3*
X1850394Y747205D3*
Y983425D3*
Y1219646D3*
X1456312Y2450167D3*
X629921Y437795D3*
X866142D3*
X1732283D3*
X1614173D3*
X1377953D3*
X1102362D3*
X1850394Y1455866D3*
Y1692087D3*
Y1928307D3*
X1496063Y2637795D3*
X1850394Y2164528D3*
X1614173Y2637795D3*
X748031Y437795D3*
X1496063D3*
X1259843D3*
X984252D3*
X512638Y981181D3*
Y1217402D3*
Y1453622D3*
Y1689843D3*
Y1926063D3*
Y2162283D3*
Y2398504D3*
D50*
X1237520Y576181D3*
D3*
X1637598D3*
D3*
D39*
X1081201Y2662450D3*
X1281181Y2662490D3*
D50*
X837480Y576181D3*
D3*
M02*
