G04 DipTrace 3.0.0.1*
G04 Bottom.gbr*
%MOIN*%
G04 #@! TF.FileFunction,Copper,L2,Bot*
G04 #@! TF.Part,Single*
G04 #@! TA.AperFunction,CopperBalancing*
%ADD18C,0.025*%
G04 #@! TA.AperFunction,ComponentPad*
%ADD25C,0.070866*%
%ADD28C,0.031496*%
%ADD32O,0.062992X0.177165*%
%FSLAX26Y26*%
G04*
G70*
G90*
G75*
G01*
G04 Bottom*
%LPD*%
X408701Y2718537D2*
D18*
X464712D1*
X558921D2*
X1803286D1*
X1897495D2*
X1953481D1*
X408701Y2693668D2*
X435903D1*
X587680D2*
X1774477D1*
X1926303D2*
X1953481D1*
X408701Y2668799D2*
X422426D1*
X601206D2*
X1761001D1*
X1939780D2*
X1953516D1*
X408701Y2643930D2*
X417299D1*
X606333D2*
X1755874D1*
X1944907D2*
X1953512D1*
X408701Y2619062D2*
X419008D1*
X604624D2*
X1757583D1*
X1943198D2*
X1953489D1*
X408701Y2594193D2*
X428042D1*
X595590D2*
X1766616D1*
X1934165D2*
X1953461D1*
X408701Y2569324D2*
X447524D1*
X576108D2*
X1786098D1*
X1914682D2*
X1953481D1*
X408701Y2544455D2*
X1953481D1*
X408701Y2519587D2*
X1953481D1*
X408701Y2494718D2*
X1953481D1*
X408701Y2469849D2*
X1953481D1*
X408701Y2444980D2*
X1953481D1*
X408701Y2420112D2*
X1953481D1*
X408701Y2395243D2*
X1953481D1*
X408701Y2370374D2*
X1953481D1*
X408701Y2345505D2*
X1953481D1*
X408701Y2320636D2*
X1953481D1*
X408701Y2295768D2*
X1953481D1*
X408701Y2270899D2*
X1953481D1*
X408701Y2246030D2*
X1953481D1*
X408701Y2221161D2*
X1953481D1*
X408701Y2196293D2*
X1953481D1*
X408701Y2171424D2*
X1953481D1*
X408701Y2146555D2*
X1953481D1*
X408701Y2121686D2*
X1953481D1*
X408701Y2096818D2*
X1953481D1*
X408701Y2071949D2*
X1953481D1*
X408701Y2047080D2*
X1953481D1*
X408701Y2022211D2*
X1953481D1*
X408701Y1997343D2*
X1953481D1*
X408701Y1972474D2*
X1953481D1*
X408701Y1947605D2*
X1953481D1*
X408701Y1922736D2*
X1953481D1*
X408701Y1897867D2*
X1953481D1*
X408701Y1872999D2*
X1953481D1*
X408701Y1848130D2*
X1953481D1*
X408701Y1823261D2*
X1953481D1*
X408701Y1798392D2*
X1953481D1*
X408701Y1773524D2*
X1953481D1*
X408701Y1748655D2*
X1953481D1*
X408701Y1723786D2*
X1953481D1*
X408701Y1698917D2*
X1953481D1*
X408701Y1674049D2*
X1953481D1*
X408701Y1649180D2*
X1953481D1*
X408701Y1624311D2*
X1953481D1*
X408701Y1599442D2*
X1953481D1*
X408701Y1574573D2*
X1953481D1*
X408701Y1549705D2*
X1953481D1*
X408701Y1524836D2*
X1953481D1*
X408701Y1499967D2*
X1953481D1*
X408701Y1475098D2*
X1953481D1*
X408701Y1450230D2*
X1953481D1*
X408701Y1425361D2*
X1953481D1*
X408701Y1400492D2*
X1953481D1*
X408701Y1375623D2*
X1953481D1*
X408701Y1350755D2*
X1953481D1*
X408701Y1325886D2*
X1953481D1*
X408701Y1301017D2*
X1953481D1*
X408701Y1276148D2*
X1953481D1*
X408701Y1251280D2*
X1953481D1*
X408701Y1226411D2*
X1953481D1*
X408701Y1201542D2*
X1953481D1*
X408701Y1176673D2*
X1953481D1*
X408701Y1151804D2*
X1953481D1*
X408701Y1126936D2*
X1953481D1*
X408701Y1102067D2*
X1953481D1*
X408701Y1077198D2*
X1953481D1*
X408701Y1052329D2*
X1953481D1*
X408701Y1027461D2*
X1953481D1*
X408701Y1002592D2*
X1953481D1*
X408701Y977723D2*
X1953481D1*
X408701Y952854D2*
X1953481D1*
X408701Y927986D2*
X1953481D1*
X408701Y903117D2*
X1953481D1*
X408701Y878248D2*
X1953481D1*
X408701Y853379D2*
X1953481D1*
X408701Y828510D2*
X1953481D1*
X408701Y803642D2*
X1953481D1*
X408701Y778773D2*
X1953481D1*
X408701Y753904D2*
X1953481D1*
X408701Y729035D2*
X1953481D1*
X408701Y704167D2*
X1953481D1*
X408701Y679298D2*
X1953481D1*
X408701Y654429D2*
X1953481D1*
X408701Y629560D2*
X798452D1*
X876499D2*
X898501D1*
X976547D2*
X998501D1*
X1076547D2*
X1098501D1*
X1176547D2*
X1198501D1*
X1276547D2*
X1298549D1*
X1376596D2*
X1398549D1*
X1476596D2*
X1498549D1*
X1576596D2*
X1598549D1*
X1676645D2*
X1953481D1*
X408701Y604692D2*
X776919D1*
X1698178D2*
X1843862D1*
X1860599D2*
X1953481D1*
X408701Y579823D2*
X446987D1*
X576645D2*
X770424D1*
X1704672D2*
X1786538D1*
X1917954D2*
X1953481D1*
X408701Y554954D2*
X427797D1*
X595835D2*
X773891D1*
X1701206D2*
X1767788D1*
X1936704D2*
X1953486D1*
X408701Y530085D2*
X418911D1*
X604721D2*
X789614D1*
X1685483D2*
X1759145D1*
X1945297D2*
X1953518D1*
X408701Y505217D2*
X417299D1*
X606333D2*
X1757827D1*
X408701Y480348D2*
X422622D1*
X601010D2*
X1763344D1*
X1941147D2*
X1953529D1*
X408701Y455479D2*
X436294D1*
X587338D2*
X1777358D1*
X1927133D2*
X1953481D1*
X408701Y430610D2*
X465542D1*
X558090D2*
X1807534D1*
X1896909D2*
X1953481D1*
X1944200Y505401D2*
X1941936Y491105D1*
X1937463Y477339D1*
X1930892Y464442D1*
X1922384Y452733D1*
X1912149Y442498D1*
X1900439Y433990D1*
X1887543Y427419D1*
X1873777Y422946D1*
X1859481Y420682D1*
X1845007D1*
X1830711Y422946D1*
X1816945Y427419D1*
X1804049Y433990D1*
X1792339Y442498D1*
X1782104Y452733D1*
X1773596Y464442D1*
X1767025Y477339D1*
X1762553Y491105D1*
X1760288Y505401D1*
Y519875D1*
X1762553Y534171D1*
X1767025Y547937D1*
X1773596Y560833D1*
X1782104Y572543D1*
X1792339Y582778D1*
X1804049Y591285D1*
X1816945Y597857D1*
X1830711Y602329D1*
X1845007Y604594D1*
X1859481D1*
X1873777Y602329D1*
X1887543Y597857D1*
X1900439Y591285D1*
X1912149Y582778D1*
X1922384Y572543D1*
X1930892Y560833D1*
X1937463Y547937D1*
X1941936Y534171D1*
X1944200Y519875D1*
Y505401D1*
X603767Y504574D2*
X601503Y490278D1*
X597030Y476512D1*
X590459Y463616D1*
X581951Y451906D1*
X571716Y441671D1*
X560006Y433163D1*
X547110Y426592D1*
X533344Y422119D1*
X519048Y419855D1*
X504574D1*
X490278Y422119D1*
X476512Y426592D1*
X463616Y433163D1*
X451906Y441671D1*
X441671Y451906D1*
X433163Y463616D1*
X426592Y476512D1*
X422119Y490278D1*
X419855Y504574D1*
Y519048D1*
X422119Y533344D1*
X426592Y547110D1*
X433163Y560006D1*
X441671Y571716D1*
X451906Y581951D1*
X463616Y590459D1*
X476512Y597030D1*
X490278Y601503D1*
X504574Y603767D1*
X519048D1*
X533344Y601503D1*
X547110Y597030D1*
X560006Y590459D1*
X571716Y581951D1*
X581951Y571716D1*
X590459Y560006D1*
X597030Y547110D1*
X601503Y533344D1*
X603767Y519048D1*
Y504574D1*
X1942350Y2630558D2*
X1940085Y2616262D1*
X1935612Y2602496D1*
X1929041Y2589600D1*
X1920534Y2577890D1*
X1910299Y2567655D1*
X1898589Y2559148D1*
X1885692Y2552576D1*
X1871927Y2548104D1*
X1857631Y2545839D1*
X1843157D1*
X1828861Y2548104D1*
X1815095Y2552576D1*
X1802198Y2559148D1*
X1790489Y2567655D1*
X1780254Y2577890D1*
X1771746Y2589600D1*
X1765175Y2602496D1*
X1760702Y2616262D1*
X1758438Y2630558D1*
Y2645032D1*
X1760702Y2659328D1*
X1765175Y2673094D1*
X1771746Y2685991D1*
X1780254Y2697700D1*
X1790489Y2707935D1*
X1802198Y2716443D1*
X1815095Y2723014D1*
X1828861Y2727487D1*
X1843157Y2729751D1*
X1857631D1*
X1871927Y2727487D1*
X1885692Y2723014D1*
X1898589Y2716443D1*
X1910299Y2707935D1*
X1920534Y2697700D1*
X1929041Y2685991D1*
X1935612Y2673094D1*
X1940085Y2659328D1*
X1942350Y2645032D1*
Y2630558D1*
X603767D2*
X601503Y2616262D1*
X597030Y2602496D1*
X590459Y2589600D1*
X581951Y2577890D1*
X571716Y2567655D1*
X560006Y2559148D1*
X547110Y2552576D1*
X533344Y2548104D1*
X519048Y2545839D1*
X504574D1*
X490278Y2548104D1*
X476512Y2552576D1*
X463616Y2559148D1*
X451906Y2567655D1*
X441671Y2577890D1*
X433163Y2589600D1*
X426592Y2602496D1*
X422119Y2616262D1*
X419855Y2630558D1*
Y2645032D1*
X422119Y2659328D1*
X426592Y2673094D1*
X433163Y2685991D1*
X441671Y2697700D1*
X451906Y2707935D1*
X463616Y2716443D1*
X476512Y2723014D1*
X490278Y2727487D1*
X504574Y2729751D1*
X519048D1*
X533344Y2727487D1*
X547110Y2723014D1*
X560006Y2716443D1*
X571716Y2707935D1*
X581951Y2697700D1*
X590459Y2685991D1*
X597030Y2673094D1*
X601503Y2659328D1*
X603767Y2645032D1*
Y2630558D1*
X987502Y535187D2*
X983256Y530445D1*
X975538Y523853D1*
X966884Y518550D1*
X957507Y514666D1*
X947638Y512296D1*
X937520Y511500D1*
X927401Y512296D1*
X917532Y514666D1*
X908155Y518550D1*
X899501Y523853D1*
X891783Y530445D1*
X887513Y535218D1*
X883217Y530445D1*
X875499Y523853D1*
X866845Y518550D1*
X857468Y514666D1*
X847599Y512296D1*
X837480Y511500D1*
X827362Y512296D1*
X817493Y514666D1*
X808116Y518550D1*
X799462Y523853D1*
X791744Y530445D1*
X785152Y538163D1*
X779849Y546816D1*
X775965Y556194D1*
X773596Y566063D1*
X772799Y576181D1*
X773596Y586299D1*
X775965Y596169D1*
X779849Y605546D1*
X785152Y614200D1*
X791744Y621918D1*
X799462Y628509D1*
X808116Y633812D1*
X817493Y637696D1*
X827362Y640066D1*
X837480Y640862D1*
X847599Y640066D1*
X857468Y637696D1*
X866845Y633812D1*
X875499Y628509D1*
X883217Y621918D1*
X887487Y617144D1*
X891783Y621918D1*
X899501Y628509D1*
X908155Y633812D1*
X917532Y637696D1*
X927401Y640066D1*
X937520Y640862D1*
X947638Y640066D1*
X957507Y637696D1*
X966884Y633812D1*
X975538Y628509D1*
X983256Y621918D1*
X987502Y617175D1*
X991783Y621918D1*
X999501Y628509D1*
X1008155Y633812D1*
X1017532Y637696D1*
X1027401Y640066D1*
X1037520Y640862D1*
X1047638Y640066D1*
X1057507Y637696D1*
X1066884Y633812D1*
X1075538Y628509D1*
X1083256Y621918D1*
X1087502Y617175D1*
X1091783Y621918D1*
X1099501Y628509D1*
X1108155Y633812D1*
X1117532Y637696D1*
X1127401Y640066D1*
X1137520Y640862D1*
X1147638Y640066D1*
X1157507Y637696D1*
X1166884Y633812D1*
X1175538Y628509D1*
X1183256Y621918D1*
X1187502Y617175D1*
X1191783Y621918D1*
X1199501Y628509D1*
X1208155Y633812D1*
X1217532Y637696D1*
X1227401Y640066D1*
X1237520Y640862D1*
X1247638Y640066D1*
X1257507Y637696D1*
X1266884Y633812D1*
X1275538Y628509D1*
X1283256Y621918D1*
X1287526Y617144D1*
X1291823Y621918D1*
X1299540Y628509D1*
X1308194Y633812D1*
X1317571Y637696D1*
X1327441Y640066D1*
X1337559Y640862D1*
X1347677Y640066D1*
X1357547Y637696D1*
X1366924Y633812D1*
X1375578Y628509D1*
X1383296Y621918D1*
X1387541Y617175D1*
X1391823Y621918D1*
X1399540Y628509D1*
X1408194Y633812D1*
X1417571Y637696D1*
X1427441Y640066D1*
X1437559Y640862D1*
X1447677Y640066D1*
X1457547Y637696D1*
X1466924Y633812D1*
X1475578Y628509D1*
X1483296Y621918D1*
X1487541Y617175D1*
X1491823Y621918D1*
X1499540Y628509D1*
X1508194Y633812D1*
X1517571Y637696D1*
X1527441Y640066D1*
X1537559Y640862D1*
X1547677Y640066D1*
X1557547Y637696D1*
X1566924Y633812D1*
X1575578Y628509D1*
X1583296Y621918D1*
X1587566Y617144D1*
X1591862Y621918D1*
X1599580Y628509D1*
X1608234Y633812D1*
X1617611Y637696D1*
X1627480Y640066D1*
X1637598Y640862D1*
X1647717Y640066D1*
X1657586Y637696D1*
X1666963Y633812D1*
X1675617Y628509D1*
X1683335Y621918D1*
X1689927Y614200D1*
X1695230Y605546D1*
X1699114Y596169D1*
X1701483Y586299D1*
X1702280Y576181D1*
X1701483Y566063D1*
X1699114Y556194D1*
X1695230Y546816D1*
X1689927Y538163D1*
X1683335Y530445D1*
X1675617Y523853D1*
X1666963Y518550D1*
X1657586Y514666D1*
X1647717Y512296D1*
X1637598Y511500D1*
X1627480Y512296D1*
X1617611Y514666D1*
X1608234Y518550D1*
X1599580Y523853D1*
X1591862Y530445D1*
X1587592Y535218D1*
X1583296Y530445D1*
X1575578Y523853D1*
X1566924Y518550D1*
X1557547Y514666D1*
X1547677Y512296D1*
X1537559Y511500D1*
X1527441Y512296D1*
X1517571Y514666D1*
X1508194Y518550D1*
X1499540Y523853D1*
X1491823Y530445D1*
X1487577Y535187D1*
X1483296Y530445D1*
X1475578Y523853D1*
X1466924Y518550D1*
X1457547Y514666D1*
X1447677Y512296D1*
X1437559Y511500D1*
X1427441Y512296D1*
X1417571Y514666D1*
X1408194Y518550D1*
X1399540Y523853D1*
X1391823Y530445D1*
X1387577Y535187D1*
X1383296Y530445D1*
X1375578Y523853D1*
X1366924Y518550D1*
X1357547Y514666D1*
X1347677Y512296D1*
X1337559Y511500D1*
X1327441Y512296D1*
X1317571Y514666D1*
X1308194Y518550D1*
X1299540Y523853D1*
X1291823Y530445D1*
X1287552Y535218D1*
X1283256Y530445D1*
X1275538Y523853D1*
X1266884Y518550D1*
X1257507Y514666D1*
X1247638Y512296D1*
X1237520Y511500D1*
X1227401Y512296D1*
X1217532Y514666D1*
X1208155Y518550D1*
X1199501Y523853D1*
X1191783Y530445D1*
X1187537Y535187D1*
X1183256Y530445D1*
X1175538Y523853D1*
X1166884Y518550D1*
X1157507Y514666D1*
X1147638Y512296D1*
X1137520Y511500D1*
X1127401Y512296D1*
X1117532Y514666D1*
X1108155Y518550D1*
X1099501Y523853D1*
X1091783Y530445D1*
X1087537Y535187D1*
X1083256Y530445D1*
X1075538Y523853D1*
X1066884Y518550D1*
X1057507Y514666D1*
X1047638Y512296D1*
X1037520Y511500D1*
X1027401Y512296D1*
X1017532Y514666D1*
X1008155Y518550D1*
X999501Y523853D1*
X991783Y530445D1*
X987537Y535187D1*
X983256Y530445D1*
X975538Y523853D1*
X966884Y518550D1*
X957507Y514666D1*
X947638Y512296D1*
X937520Y511500D1*
X927401Y512296D1*
X917532Y514666D1*
X908155Y518550D1*
X899501Y523853D1*
X891783Y530445D1*
X887513Y535218D1*
X883217Y530445D1*
X875499Y523853D1*
X866845Y518550D1*
X857468Y514666D1*
X847599Y512296D1*
X837480Y511500D1*
X827362Y512296D1*
X817493Y514666D1*
X808116Y518550D1*
X799462Y523853D1*
X791744Y530445D1*
X785152Y538163D1*
X779849Y546816D1*
X775965Y556194D1*
X773596Y566063D1*
X772799Y576181D1*
X773596Y586299D1*
X775965Y596169D1*
X779849Y605546D1*
X785152Y614200D1*
X791744Y621918D1*
X799462Y628509D1*
X808116Y633812D1*
X817493Y637696D1*
X827362Y640066D1*
X837480Y640862D1*
X847599Y640066D1*
X857468Y637696D1*
X866845Y633812D1*
X875499Y628509D1*
X883217Y621918D1*
X887487Y617144D1*
X891783Y621918D1*
X899501Y628509D1*
X908155Y633812D1*
X917532Y637696D1*
X927401Y640066D1*
X937520Y640862D1*
X947638Y640066D1*
X957507Y637696D1*
X966884Y633812D1*
X975538Y628509D1*
X983256Y621918D1*
X987502Y617175D1*
X991783Y621918D1*
X999501Y628509D1*
X1008155Y633812D1*
X1017532Y637696D1*
X1027401Y640066D1*
X1037520Y640862D1*
X1047638Y640066D1*
X1057507Y637696D1*
X1066884Y633812D1*
X1075538Y628509D1*
X1083256Y621918D1*
X1087502Y617175D1*
X1091783Y621918D1*
X1099501Y628509D1*
X1108155Y633812D1*
X1117532Y637696D1*
X1127401Y640066D1*
X1137520Y640862D1*
X1147638Y640066D1*
X1157507Y637696D1*
X1166884Y633812D1*
X1175538Y628509D1*
X1183256Y621918D1*
X1187502Y617175D1*
X1191783Y621918D1*
X1199501Y628509D1*
X1208155Y633812D1*
X1217532Y637696D1*
X1227401Y640066D1*
X1237520Y640862D1*
X1247638Y640066D1*
X1257507Y637696D1*
X1266884Y633812D1*
X1275538Y628509D1*
X1283256Y621918D1*
X1287526Y617144D1*
X1291823Y621918D1*
X1299540Y628509D1*
X1308194Y633812D1*
X1317571Y637696D1*
X1327441Y640066D1*
X1337559Y640862D1*
X1347677Y640066D1*
X1357547Y637696D1*
X1366924Y633812D1*
X1375578Y628509D1*
X1383296Y621918D1*
X1387541Y617175D1*
X1391823Y621918D1*
X1399540Y628509D1*
X1408194Y633812D1*
X1417571Y637696D1*
X1427441Y640066D1*
X1437559Y640862D1*
X1447677Y640066D1*
X1457547Y637696D1*
X1466924Y633812D1*
X1475578Y628509D1*
X1483296Y621918D1*
X1487541Y617175D1*
X1491823Y621918D1*
X1499540Y628509D1*
X1508194Y633812D1*
X1517571Y637696D1*
X1527441Y640066D1*
X1537559Y640862D1*
X1547677Y640066D1*
X1557547Y637696D1*
X1566924Y633812D1*
X1575578Y628509D1*
X1583296Y621918D1*
X1587566Y617144D1*
X1591862Y621918D1*
X1599580Y628509D1*
X1608234Y633812D1*
X1617611Y637696D1*
X1627480Y640066D1*
X1637598Y640862D1*
X1647717Y640066D1*
X1657586Y637696D1*
X1666963Y633812D1*
X1675617Y628509D1*
X1683335Y621918D1*
X1689927Y614200D1*
X1695230Y605546D1*
X1699114Y596169D1*
X1701483Y586299D1*
X1702280Y576181D1*
X1701483Y566063D1*
X1699114Y556194D1*
X1695230Y546816D1*
X1689927Y538163D1*
X1683335Y530445D1*
X1675617Y523853D1*
X1666963Y518550D1*
X1657586Y514666D1*
X1647717Y512296D1*
X1637598Y511500D1*
X1627480Y512296D1*
X1617611Y514666D1*
X1608234Y518550D1*
X1599580Y523853D1*
X1591862Y530445D1*
X1587592Y535218D1*
X1583296Y530445D1*
X1575578Y523853D1*
X1566924Y518550D1*
X1557547Y514666D1*
X1547677Y512296D1*
X1537559Y511500D1*
X1527441Y512296D1*
X1517571Y514666D1*
X1508194Y518550D1*
X1499540Y523853D1*
X1491823Y530445D1*
X1487577Y535187D1*
X1483296Y530445D1*
X1475578Y523853D1*
X1466924Y518550D1*
X1457547Y514666D1*
X1447677Y512296D1*
X1437559Y511500D1*
X1427441Y512296D1*
X1417571Y514666D1*
X1408194Y518550D1*
X1399540Y523853D1*
X1391823Y530445D1*
X1387577Y535187D1*
X1383296Y530445D1*
X1375578Y523853D1*
X1366924Y518550D1*
X1357547Y514666D1*
X1347677Y512296D1*
X1337559Y511500D1*
X1327441Y512296D1*
X1317571Y514666D1*
X1308194Y518550D1*
X1299540Y523853D1*
X1291823Y530445D1*
X1287552Y535218D1*
X1283256Y530445D1*
X1275538Y523853D1*
X1266884Y518550D1*
X1257507Y514666D1*
X1247638Y512296D1*
X1237520Y511500D1*
X1227401Y512296D1*
X1217532Y514666D1*
X1208155Y518550D1*
X1199501Y523853D1*
X1191783Y530445D1*
X1187537Y535187D1*
X1183256Y530445D1*
X1175538Y523853D1*
X1166884Y518550D1*
X1157507Y514666D1*
X1147638Y512296D1*
X1137520Y511500D1*
X1127401Y512296D1*
X1117532Y514666D1*
X1108155Y518550D1*
X1099501Y523853D1*
X1091783Y530445D1*
X1087537Y535187D1*
X1083256Y530445D1*
X1075538Y523853D1*
X1066884Y518550D1*
X1057507Y514666D1*
X1047638Y512296D1*
X1037520Y511500D1*
X1027401Y512296D1*
X1017532Y514666D1*
X1008155Y518550D1*
X999501Y523853D1*
X991783Y530445D1*
X987537Y535187D1*
X406201Y2743357D2*
Y406201D1*
X1955957D1*
X1956004Y2743359D1*
X406248Y2743405D1*
D25*
X737451Y574950D3*
D3*
X937520Y576181D3*
D3*
X1037520D3*
D3*
X1137520D3*
D3*
X1337559D3*
D3*
X1437559D3*
D3*
X1537559D3*
D3*
D28*
X1850394Y629921D3*
Y2519685D3*
Y866142D3*
X511811Y2519685D3*
X1850394Y1102362D3*
X511811Y2283465D3*
X1850394Y1338583D3*
X511811Y2047244D3*
Y1811024D3*
Y1574803D3*
Y1338583D3*
Y1102362D3*
X1850394Y1574803D3*
Y1811024D3*
Y2047244D3*
X511811Y866142D3*
Y629921D3*
X1025017Y2443916D3*
X881244Y1318807D3*
X1850394Y2283465D3*
X881253Y1218812D3*
Y1118807D3*
X968761Y2443916D3*
X881253Y1018801D3*
X881245Y918819D3*
X912505Y2718945D3*
Y2656438D3*
X1732283Y2637795D3*
X881253Y818795D3*
X912505Y2587681D3*
Y2518924D3*
X893745Y1418812D3*
X781253Y1518819D3*
Y1418819D3*
X818753Y1318819D3*
X743738Y1731341D3*
X912505Y2450167D3*
X1456312Y2718945D3*
Y2656438D3*
Y2587681D3*
X748031Y2637795D3*
X629921D3*
X866142D3*
X743738Y1800098D3*
X512638Y744961D3*
X893753Y1518819D3*
X1850394Y2400748D3*
X1456312Y2518924D3*
X1850394Y747205D3*
Y983425D3*
Y1219646D3*
X1456312Y2450167D3*
X629921Y437795D3*
X866142D3*
X1732283D3*
X1614173D3*
X1377953D3*
X1102362D3*
X1850394Y1455866D3*
Y1692087D3*
Y1928307D3*
X1496063Y2637795D3*
X1850394Y2164528D3*
X1614173Y2637795D3*
X748031Y437795D3*
X1496063D3*
X1259843D3*
X984252D3*
X512638Y981181D3*
Y1217402D3*
Y1453622D3*
Y1689843D3*
Y1926063D3*
Y2162283D3*
Y2398504D3*
D25*
X1237520Y576181D3*
D3*
X1637598D3*
D3*
D32*
X1081201Y2662450D3*
X1281181Y2662490D3*
D25*
X837480Y576181D3*
D3*
M02*
