M48
INCH
T01C0.0197
T02C0.0315
T03C0.126
%
T01
X+018504Y+006299
X+018504Y+007472
X+018504Y+008661
X+018504Y+009834
X+018504Y+011024
X+018504Y+012196
X+018504Y+013386
X+018504Y+014559
X+018504Y+015748
X+018504Y+016921
X+018504Y+018110
X+018504Y+019283
X+018504Y+020472
X+018504Y+021645
X+018504Y+022835
X+018504Y+024007
X+018504Y+025197
X+017323Y+026378
X+016142Y+026378
X+014961Y+026378
X+014563Y+026564
X+014563Y+027189
X+014563Y+025877
X+014563Y+025189
X+014563Y+024502
X+010250Y+024439
X+009688Y+024439
X+009125Y+024502
X+009125Y+025189
X+009125Y+025877
X+008661Y+026378
X+009125Y+026564
X+009125Y+027189
X+007480Y+026378
X+006299Y+026378
X+005118Y+025197
X+005126Y+023985
X+005118Y+022835
X+005126Y+021623
X+005118Y+020472
X+005126Y+019261
X+005118Y+018110
X+005126Y+016898
X+005118Y+015748
X+005126Y+014536
X+005118Y+013386
X+005126Y+012174
X+005118Y+011024
X+005126Y+009812
X+005118Y+008661
X+005126Y+007450
X+005118Y+006299
X+006299Y+004378
X+007480Y+004378
X+008661Y+004378
X+009843Y+004378
X+011024Y+004378
X+012598Y+004378
X+013780Y+004378
X+014961Y+004378
X+016142Y+004378
X+017323Y+004378
X+008813Y+008188
X+008812Y+009188
X+008813Y+010188
X+008813Y+011188
X+008813Y+012188
X+008812Y+013188
X+008188Y+013188
X+007813Y+014188
X+007813Y+015188
X+008938Y+015188
X+008937Y+014188
X+007437Y+017313
X+007437Y+018001
T02
X+007375Y+005750
X+008375Y+005762
X+009375Y+005762
X+010375Y+005762
X+011375Y+005762
X+012375Y+005762
X+013376Y+005762
X+014376Y+005762
X+015376Y+005762
X+016376Y+005762
T03
X+018522Y+005126
X+005118Y+005118
X+005118Y+026378
X+018504Y+026378
T00
M30
